
<svg width="367px" height="116px" viewBox="0 0 367 116" version="1.1" xmlns="http://www.w3.org/2000/svg" xmlns:xlink="http://www.w3.org/1999/xlink">
    <defs>
        <linearGradient x1="25.3096908%" y1="38.6988329%" x2="81.4405529%" y2="75.94613%" id="linearGradient-1">
            <stop stop-color="#2790EB" offset="0%"></stop>
            <stop stop-color="#2FE0EA" offset="72.04%"></stop>
        </linearGradient>
    </defs>
    <g id="Logo" stroke="none" stroke-width="1" fill="none" fill-rule="evenodd">
        <path d="M50.095,85.408 C50.095,85.422 50.095,85.433 50.095,85.447 C50.095,86.619 48.831,87.576 47.273,87.576 C26.494,87.576 28.73,87.576 21.867,87.576 C21.857,87.576 21.847,87.576 21.838,87.576 C21.834,87.576 21.83,87.574 21.826,87.574 C21.808,87.57 21.791,87.566 21.775,87.562 C21.742,87.552 21.707,87.544 21.673,87.535 C21.605,87.519 21.538,87.502 21.472,87.486 C21.337,87.449 21.202,87.414 21.072,87.379 C20.937,87.34 20.804,87.303 20.672,87.266 C20.539,87.227 20.408,87.188 20.274,87.149 C20.143,87.108 20.012,87.067 19.881,87.026 C19.75,86.983 19.621,86.94 19.49,86.899 C19.359,86.854 19.23,86.811 19.101,86.766 C18.97,86.719 18.841,86.674 18.712,86.627 C18.585,86.58 18.456,86.533 18.329,86.486 C18.2,86.437 18.073,86.386 17.948,86.338 C17.821,86.287 17.694,86.236 17.569,86.186 C17.444,86.133 17.317,86.082 17.192,86.03 C17.069,85.975 16.944,85.923 16.819,85.866 C16.696,85.813 16.573,85.757 16.448,85.7 C16.327,85.643 16.204,85.587 16.081,85.53 C15.96,85.469 15.839,85.411 15.716,85.352 C15.597,85.291 15.478,85.233 15.357,85.172 C15.236,85.109 15.119,85.047 14.998,84.986 C14.881,84.922 14.762,84.857 14.644,84.795 C14.525,84.731 14.408,84.666 14.29,84.6 C14.172,84.534 14.058,84.467 13.94,84.403 C13.825,84.335 13.711,84.266 13.596,84.198 C13.481,84.13 13.367,84.059 13.25,83.991 C13.139,83.919 13.025,83.848 12.912,83.778 C12.799,83.706 12.689,83.633 12.576,83.561 C12.467,83.487 12.355,83.415 12.242,83.338 C12.135,83.264 12.025,83.19 11.914,83.113 C11.805,83.037 11.697,82.961 11.59,82.884 C11.483,82.806 11.375,82.73 11.266,82.65 C11.161,82.572 11.055,82.494 10.95,82.414 C10.843,82.334 10.739,82.252 10.634,82.172 C10.53,82.09 10.427,82.01 10.323,81.926 C10.219,81.842 10.118,81.76 10.014,81.676 C9.912,81.592 9.811,81.508 9.711,81.422 C9.609,81.338 9.51,81.25 9.41,81.166 C9.31,81.078 9.211,80.99 9.113,80.904 C9.015,80.814 8.918,80.726 8.82,80.638 C8.724,80.548 8.629,80.458 8.531,80.368 C8.437,80.276 8.342,80.186 8.248,80.095 C8.154,80.005 8.062,79.911 7.967,79.82 C7.875,79.726 7.783,79.632 7.692,79.541 C7.6,79.445 7.508,79.35 7.419,79.258 C7.331,79.16 7.241,79.065 7.151,78.969 C7.063,78.873 6.975,78.776 6.885,78.678 C6.799,78.58 6.713,78.481 6.625,78.385 C6.541,78.285 6.455,78.186 6.369,78.086 C6.287,77.984 6.203,77.885 6.119,77.785 C6.037,77.683 5.953,77.582 5.873,77.48 C5.791,77.376 5.709,77.273 5.629,77.171 C5.549,77.067 5.471,76.964 5.391,76.86 C5.313,76.755 5.235,76.651 5.159,76.546 C5.083,76.441 5.007,76.335 4.929,76.228 C4.855,76.123 4.779,76.015 4.706,75.908 C4.632,75.801 4.558,75.693 4.485,75.584 C4.415,75.477 4.342,75.367 4.27,75.258 C4.198,75.149 4.129,75.037 4.059,74.928 C3.991,74.817 3.922,74.705 3.854,74.594 C3.786,74.485 3.721,74.371 3.653,74.26 C3.587,74.147 3.522,74.033 3.458,73.92 C3.394,73.807 3.331,73.691 3.267,73.578 C3.204,73.465 3.142,73.349 3.081,73.233 C3.018,73.118 2.958,73.003 2.899,72.885 C2.84,72.767 2.782,72.653 2.721,72.537 C2.664,72.418 2.608,72.301 2.549,72.183 C2.494,72.064 2.44,71.945 2.385,71.828 C2.33,71.709 2.278,71.59 2.225,71.471 C2.172,71.35 2.12,71.229 2.069,71.11 C2.018,70.989 1.969,70.868 1.917,70.747 C1.87,70.624 1.823,70.503 1.774,70.382 C1.727,70.259 1.68,70.138 1.633,70.013 C1.588,69.892 1.545,69.767 1.5,69.644 C1.455,69.521 1.412,69.396 1.371,69.271 C1.328,69.146 1.289,69.021 1.248,68.898 C1.207,68.771 1.168,68.644 1.129,68.519 C1.092,68.392 1.055,68.265 1.018,68.139 C0.981,68.012 0.946,67.884 0.909,67.757 C0.878,67.63 0.843,67.501 0.809,67.374 C0.778,67.244 0.746,67.116 0.713,66.987 C0.684,66.856 0.654,66.727 0.625,66.599 C0.596,66.467 0.568,66.337 0.541,66.207 C0.516,66.077 0.488,65.946 0.463,65.816 C0.44,65.685 0.414,65.552 0.393,65.42 C0.37,65.289 0.348,65.156 0.325,65.025 C0.305,64.892 0.286,64.759 0.264,64.626 C0.246,64.493 0.229,64.36 0.211,64.228 C0.195,64.094 0.18,63.96 0.162,63.826 C0.148,63.693 0.135,63.557 0.121,63.424 C0.109,63.289 0.096,63.153 0.084,63.02 C0.074,62.885 0.064,62.749 0.057,62.613 C0.047,62.477 0.039,62.342 0.034,62.206 C0.028,62.069 0.02,61.933 0.014,61.795 C0.012,61.658 0.008,61.522 0.004,61.386 C0.002,61.247 0,61.11 0,60.972 C0,60.953 0,60.938 0,60.921 C0,60.902 0,60.884 0,60.865 C0,60.829 0,60.791 0,60.753 C0,60.678 0,60.603 0,60.528 C0.004,60.379 0.008,60.23 0.012,60.081 C0.018,59.933 0.026,59.782 0.03,59.635 C0.038,59.487 0.046,59.338 0.053,59.19 C0.065,59.042 0.076,58.895 0.088,58.747 C0.102,58.601 0.113,58.454 0.127,58.308 C0.141,58.161 0.158,58.015 0.172,57.87 C0.193,57.724 0.209,57.579 0.229,57.434 C0.249,57.287 0.27,57.142 0.29,56.998 C0.313,56.853 0.335,56.71 0.358,56.565 C0.383,56.421 0.409,56.278 0.434,56.134 C0.461,55.991 0.489,55.849 0.516,55.706 C0.545,55.564 0.577,55.422 0.606,55.281 C0.637,55.14 0.67,54.999 0.702,54.857 C0.737,54.717 0.77,54.576 0.806,54.437 C0.841,54.297 0.878,54.157 0.915,54.018 C0.954,53.879 0.993,53.741 1.032,53.604 C1.073,53.465 1.114,53.328 1.153,53.19 C1.198,53.053 1.241,52.917 1.286,52.781 C1.329,52.644 1.376,52.508 1.421,52.373 C1.47,52.237 1.517,52.102 1.564,51.969 C1.615,51.833 1.664,51.7 1.714,51.566 C1.767,51.434 1.818,51.301 1.87,51.168 C1.923,51.035 1.977,50.904 2.03,50.772 C2.087,50.642 2.143,50.51 2.198,50.379 C2.259,50.248 2.313,50.119 2.374,49.988 C2.433,49.859 2.493,49.73 2.554,49.601 C2.617,49.473 2.679,49.345 2.74,49.217 C2.806,49.091 2.869,48.964 2.935,48.836 C2.999,48.71 3.066,48.584 3.13,48.458 C3.2,48.335 3.269,48.21 3.335,48.084 C3.405,47.962 3.478,47.837 3.546,47.714 C3.618,47.592 3.691,47.469 3.763,47.347 C3.837,47.225 3.911,47.105 3.984,46.984 C4.06,46.863 4.136,46.744 4.213,46.624 C4.289,46.505 4.367,46.386 4.445,46.266 C4.525,46.151 4.603,46.032 4.683,45.914 C4.765,45.797 4.847,45.681 4.927,45.563 C5.011,45.448 5.095,45.333 5.177,45.218 C5.263,45.104 5.347,44.989 5.431,44.876 C5.519,44.763 5.607,44.65 5.693,44.538 C5.781,44.427 5.869,44.314 5.959,44.203 C6.047,44.095 6.139,43.984 6.229,43.872 C6.321,43.765 6.413,43.656 6.504,43.547 C6.6,43.44 6.693,43.333 6.785,43.226 C6.883,43.12 6.976,43.015 7.072,42.909 C7.168,42.804 7.265,42.699 7.363,42.596 C7.461,42.492 7.56,42.388 7.66,42.284 C7.76,42.183 7.859,42.081 7.959,41.979 C8.061,41.879 8.164,41.779 8.264,41.679 C8.368,41.578 8.473,41.48 8.577,41.382 C8.681,41.283 8.786,41.187 8.891,41.089 C8.998,40.993 9.104,40.896 9.211,40.802 C9.318,40.707 9.426,40.613 9.533,40.519 C9.644,40.426 9.752,40.333 9.863,40.24 C9.974,40.148 10.084,40.058 10.195,39.967 C10.308,39.877 10.42,39.788 10.533,39.697 C10.646,39.609 10.762,39.522 10.875,39.433 C10.99,39.346 11.105,39.259 11.221,39.173 C11.338,39.087 11.455,39.003 11.573,38.918 C11.69,38.835 11.809,38.751 11.928,38.667 C12.045,38.587 12.166,38.506 12.285,38.423 C12.404,38.345 12.527,38.263 12.648,38.183 C12.769,38.106 12.892,38.028 13.013,37.95 C13.136,37.875 13.259,37.797 13.384,37.721 C13.509,37.647 13.636,37.572 13.759,37.496 C13.884,37.423 14.013,37.35 14.138,37.278 C14.265,37.208 14.392,37.135 14.521,37.063 C14.648,36.994 14.777,36.925 14.906,36.855 C15.037,36.788 15.166,36.72 15.295,36.652 C15.426,36.587 15.557,36.521 15.69,36.456 C15.821,36.391 15.954,36.327 16.086,36.263 C16.219,36.201 16.354,36.138 16.486,36.076 C16.621,36.015 16.754,35.957 16.888,35.895 C17.025,35.838 17.161,35.779 17.294,35.721 C17.431,35.663 17.569,35.607 17.706,35.551 C17.843,35.497 17.981,35.442 18.118,35.387 C18.257,35.334 18.397,35.283 18.536,35.23 C18.675,35.179 18.815,35.128 18.956,35.078 C19.097,35.03 19.237,34.982 19.378,34.932 C19.521,34.886 19.661,34.839 19.804,34.793 C19.949,34.748 20.089,34.703 20.234,34.659 C20.377,34.617 20.521,34.574 20.666,34.53 C20.811,34.491 20.955,34.449 21.102,34.411 C21.247,34.371 21.393,34.334 21.538,34.294 C21.684,34.258 21.831,34.222 21.979,34.186 C22.125,34.152 22.274,34.118 22.42,34.083 C22.568,34.052 22.719,34.019 22.865,33.985 C23.013,33.955 23.164,33.926 23.314,33.896 C23.462,33.869 23.615,33.841 23.763,33.813 C23.913,33.787 24.064,33.761 24.216,33.736 C24.368,33.713 24.521,33.689 24.671,33.666 C24.823,33.645 24.978,33.623 25.13,33.603 C25.169,33.598 25.214,33.591 25.253,33.586 C25.255,33.58 25.257,33.576 25.257,33.576 C25.261,33.563 25.261,33.554 25.263,33.546 C25.267,33.529 25.271,33.514 25.277,33.498 C25.293,33.431 25.31,33.365 25.326,33.301 C25.361,33.17 25.394,33.038 25.43,32.909 C25.467,32.779 25.502,32.649 25.539,32.519 C25.578,32.391 25.617,32.261 25.654,32.132 C25.695,32.003 25.736,31.876 25.777,31.746 C25.82,31.62 25.861,31.491 25.904,31.365 C25.949,31.238 25.992,31.112 26.035,30.984 C26.082,30.86 26.127,30.732 26.176,30.606 C26.223,30.483 26.272,30.357 26.319,30.232 C26.37,30.108 26.419,29.984 26.467,29.86 C26.52,29.737 26.571,29.613 26.623,29.491 C26.676,29.368 26.728,29.246 26.783,29.124 C26.84,29.002 26.894,28.881 26.949,28.759 C27.008,28.638 27.062,28.518 27.119,28.397 C27.18,28.278 27.238,28.158 27.295,28.039 C27.356,27.92 27.416,27.801 27.479,27.683 C27.54,27.565 27.602,27.448 27.665,27.329 C27.728,27.214 27.792,27.096 27.858,26.978 C27.922,26.862 27.987,26.746 28.053,26.63 C28.119,26.516 28.188,26.401 28.256,26.286 C28.324,26.171 28.393,26.057 28.461,25.945 C28.531,25.832 28.604,25.717 28.674,25.606 C28.746,25.493 28.819,25.381 28.891,25.27 C28.965,25.16 29.039,25.049 29.112,24.938 C29.188,24.828 29.264,24.719 29.341,24.609 C29.417,24.501 29.493,24.392 29.571,24.283 C29.651,24.176 29.727,24.068 29.807,23.962 C29.887,23.856 29.967,23.749 30.047,23.644 C30.129,23.539 30.211,23.433 30.293,23.328 C30.375,23.224 30.459,23.119 30.543,23.015 C30.627,22.911 30.713,22.81 30.797,22.706 C30.883,22.604 30.971,22.503 31.057,22.401 C31.145,22.3 31.233,22.199 31.321,22.099 C31.409,22 31.499,21.9 31.589,21.801 C31.679,21.702 31.769,21.606 31.86,21.506 C31.952,21.41 32.044,21.313 32.137,21.216 C32.23,21.119 32.325,21.024 32.416,20.928 C32.512,20.835 32.607,20.74 32.703,20.646 C32.799,20.553 32.894,20.459 32.992,20.367 C33.088,20.275 33.185,20.183 33.283,20.092 C33.383,20.001 33.482,19.91 33.582,19.821 C33.682,19.73 33.783,19.641 33.885,19.553 C33.985,19.463 34.086,19.377 34.188,19.289 C34.293,19.202 34.397,19.115 34.499,19.029 C34.603,18.943 34.706,18.858 34.812,18.774 C34.918,18.69 35.025,18.606 35.13,18.522 C35.237,18.441 35.343,18.358 35.45,18.275 C35.557,18.195 35.665,18.114 35.774,18.033 C35.885,17.954 35.993,17.874 36.102,17.795 C36.213,17.718 36.325,17.639 36.432,17.562 C36.545,17.485 36.657,17.408 36.77,17.332 C36.881,17.257 36.997,17.182 37.108,17.107 C37.223,17.032 37.337,16.96 37.452,16.885 C37.567,16.814 37.682,16.741 37.798,16.669 C37.913,16.599 38.03,16.527 38.148,16.457 C38.267,16.389 38.382,16.318 38.5,16.251 C38.619,16.183 38.738,16.114 38.857,16.047 C38.974,15.982 39.095,15.916 39.216,15.851 C39.337,15.787 39.458,15.721 39.577,15.658 C39.7,15.595 39.821,15.532 39.944,15.47 C40.065,15.409 40.19,15.346 40.313,15.286 C40.436,15.226 40.561,15.166 40.686,15.107 C40.809,15.049 40.934,14.991 41.061,14.933 C41.186,14.877 41.313,14.822 41.438,14.764 C41.565,14.71 41.694,14.655 41.819,14.6 C41.948,14.547 42.075,14.495 42.202,14.443 C42.333,14.39 42.462,14.34 42.591,14.288 C42.72,14.239 42.851,14.189 42.98,14.14 C43.111,14.093 43.242,14.046 43.373,13.997 C43.504,13.951 43.637,13.905 43.768,13.859 C43.901,13.814 44.034,13.771 44.166,13.726 C44.299,13.684 44.432,13.642 44.566,13.599 C44.699,13.558 44.836,13.517 44.968,13.477 C45.103,13.437 45.239,13.399 45.374,13.36 C45.511,13.323 45.645,13.287 45.782,13.25 C45.919,13.215 46.055,13.179 46.192,13.143 C46.329,13.11 46.467,13.078 46.604,13.043 C46.743,13.011 46.883,12.981 47.02,12.948 C47.159,12.919 47.297,12.889 47.438,12.86 C47.579,12.831 47.717,12.803 47.858,12.776 C47.999,12.75 48.139,12.725 48.28,12.699 C48.421,12.674 48.563,12.651 48.704,12.627 C48.847,12.606 48.987,12.582 49.13,12.562 C49.273,12.542 49.415,12.522 49.558,12.501 C49.703,12.482 49.843,12.465 49.988,12.447 C50.133,12.43 50.277,12.414 50.422,12.398 C50.567,12.383 50.711,12.371 50.856,12.356 C51.001,12.344 51.147,12.333 51.292,12.319 C51.438,12.31 51.585,12.299 51.73,12.289 C51.878,12.281 52.025,12.273 52.171,12.266 C52.317,12.259 52.466,12.254 52.61,12.247 C52.758,12.243 52.905,12.241 53.053,12.235 C53.201,12.234 53.35,12.231 53.498,12.23 C53.535,12.23 53.572,12.23 53.609,12.23 C53.619,12.23 53.627,12.23 53.636,12.23 C53.644,12.23 53.652,12.23 53.661,12.23 C53.669,12.23 53.675,12.23 53.681,12.23 C53.708,12.23 53.734,12.23 53.761,12.23 C53.814,12.23 53.865,12.23 53.919,12.231 C54.024,12.231 54.13,12.234 54.235,12.235 C54.34,12.238 54.444,12.241 54.549,12.243 C54.654,12.246 54.76,12.249 54.863,12.254 C54.968,12.258 55.072,12.263 55.177,12.267 C55.281,12.274 55.386,12.28 55.491,12.285 C55.593,12.292 55.698,12.298 55.804,12.305 C55.906,12.313 56.009,12.321 56.113,12.328 C56.215,12.336 56.32,12.347 56.424,12.354 C56.528,12.364 56.631,12.374 56.733,12.383 C56.837,12.394 56.938,12.405 57.042,12.415 C57.146,12.427 57.245,12.438 57.349,12.451 C57.554,12.477 57.757,12.503 57.96,12.531 C58.161,12.561 58.364,12.591 58.567,12.623 C58.768,12.657 58.969,12.691 59.171,12.727 C59.37,12.765 59.569,12.803 59.769,12.842 C59.968,12.884 60.165,12.926 60.363,12.968 C60.56,13.013 60.758,13.062 60.953,13.106 C61.146,13.158 61.342,13.206 61.539,13.255 C61.73,13.31 61.924,13.363 62.119,13.417 C62.31,13.474 62.5,13.531 62.693,13.587 C62.882,13.648 63.072,13.71 63.263,13.772 C63.449,13.835 63.638,13.899 63.826,13.963 C64.012,14.031 64.199,14.098 64.383,14.166 C64.571,14.238 64.754,14.31 64.938,14.38 C65.122,14.455 65.303,14.529 65.487,14.605 C65.669,14.684 65.848,14.761 66.028,14.839 C66.206,14.921 66.383,15.002 66.563,15.083 C66.741,15.167 66.917,15.253 67.092,15.338 C67.137,15.359 67.18,15.38 67.223,15.402 C67.237,15.407 67.248,15.413 67.258,15.418 C67.266,15.424 67.276,15.428 67.283,15.432 C67.287,15.428 67.289,15.424 67.291,15.418 C67.324,15.368 67.355,15.319 67.387,15.27 C67.451,15.17 67.518,15.072 67.582,14.974 C67.648,14.875 67.713,14.777 67.779,14.678 C67.845,14.581 67.912,14.484 67.98,14.387 C68.044,14.29 68.113,14.194 68.181,14.097 C68.249,14.001 68.318,13.906 68.386,13.81 C68.456,13.714 68.525,13.62 68.595,13.524 C68.665,13.43 68.736,13.335 68.808,13.24 C68.878,13.147 68.951,13.054 69.021,12.961 C69.095,12.868 69.166,12.774 69.24,12.682 C69.312,12.59 69.386,12.499 69.459,12.407 C69.533,12.316 69.607,12.224 69.684,12.134 C69.758,12.043 69.832,11.953 69.909,11.863 C69.985,11.773 70.061,11.683 70.138,11.593 C70.216,11.505 70.294,11.416 70.368,11.327 C70.448,11.239 70.526,11.152 70.604,11.063 C70.684,10.976 70.762,10.888 70.84,10.801 C70.92,10.714 71,10.629 71.08,10.542 C71.16,10.457 71.24,10.371 71.322,10.286 C71.404,10.202 71.484,10.115 71.568,10.033 C71.648,9.949 71.732,9.865 71.814,9.781 C71.898,9.698 71.982,9.615 72.064,9.533 C72.148,9.451 72.234,9.369 72.318,9.286 C72.402,9.205 72.488,9.125 72.572,9.043 C72.66,8.963 72.744,8.884 72.832,8.804 C72.918,8.725 73.006,8.645 73.092,8.566 C73.18,8.488 73.268,8.409 73.356,8.332 C73.444,8.255 73.532,8.177 73.622,8.101 C73.71,8.023 73.8,7.947 73.89,7.871 C73.98,7.795 74.07,7.72 74.16,7.643 C74.252,7.569 74.342,7.494 74.433,7.42 C74.525,7.345 74.617,7.272 74.708,7.198 C74.8,7.126 74.894,7.052 74.985,6.98 C75.079,6.909 75.173,6.835 75.266,6.764 C75.358,6.694 75.454,6.622 75.547,6.551 C75.641,6.482 75.736,6.412 75.83,6.343 C75.928,6.274 76.021,6.205 76.119,6.137 C76.213,6.069 76.31,6 76.408,5.934 C76.506,5.866 76.601,5.799 76.699,5.731 C76.797,5.666 76.892,5.6 76.992,5.536 C77.09,5.471 77.189,5.406 77.287,5.341 C77.387,5.277 77.486,5.214 77.586,5.15 C77.686,5.087 77.785,5.025 77.887,4.962 C77.987,4.899 78.088,4.838 78.188,4.776 C78.29,4.715 78.393,4.655 78.493,4.593 C78.595,4.534 78.698,4.475 78.8,4.415 C78.904,4.355 79.007,4.298 79.111,4.238 C79.213,4.18 79.318,4.125 79.42,4.065 C79.524,4.01 79.627,3.954 79.733,3.897 C79.838,3.842 79.944,3.787 80.047,3.732 C80.152,3.676 80.258,3.623 80.363,3.569 C80.47,3.516 80.576,3.463 80.683,3.409 C80.788,3.358 80.896,3.305 81.003,3.253 C81.11,3.202 81.218,3.152 81.323,3.101 C81.432,3.051 81.54,3.001 81.647,2.952 C81.756,2.903 81.866,2.856 81.973,2.806 C82.082,2.759 82.194,2.711 82.301,2.664 C82.41,2.616 82.522,2.57 82.631,2.524 C82.742,2.48 82.852,2.434 82.963,2.388 C83.074,2.344 83.186,2.301 83.295,2.256 C83.408,2.214 83.518,2.169 83.631,2.128 C83.744,2.085 83.856,2.044 83.967,2.003 C84.08,1.962 84.194,1.92 84.307,1.881 C84.42,1.841 84.534,1.802 84.647,1.763 C84.76,1.726 84.876,1.687 84.989,1.649 C85.104,1.612 85.218,1.576 85.333,1.538 C85.448,1.502 85.563,1.467 85.677,1.432 C85.792,1.398 85.909,1.364 86.027,1.328 C86.142,1.295 86.257,1.262 86.373,1.228 C86.49,1.196 86.607,1.164 86.725,1.133 C86.84,1.101 86.959,1.07 87.077,1.039 C87.195,1.008 87.311,0.979 87.431,0.95 C87.548,0.923 87.665,0.895 87.785,0.866 C87.902,0.839 88.021,0.812 88.139,0.785 C88.26,0.759 88.379,0.733 88.498,0.707 C88.617,0.683 88.738,0.659 88.855,0.636 C88.976,0.612 89.097,0.588 89.214,0.566 C89.335,0.544 89.456,0.521 89.577,0.501 C89.698,0.481 89.817,0.459 89.938,0.438 C90.061,0.42 90.182,0.401 90.303,0.382 C90.426,0.363 90.547,0.346 90.668,0.328 C90.791,0.31 90.914,0.294 91.035,0.278 C91.158,0.261 91.281,0.246 91.402,0.232 C91.525,0.218 91.65,0.204 91.773,0.189 C91.896,0.177 92.019,0.165 92.142,0.153 C92.265,0.141 92.39,0.13 92.515,0.119 C92.638,0.108 92.763,0.099 92.888,0.089 C93.011,0.081 93.138,0.073 93.261,0.065 C93.386,0.058 93.513,0.051 93.636,0.044 C93.761,0.037 93.888,0.032 94.013,0.025 C94.138,0.022 94.265,0.018 94.39,0.013 C94.517,0.01 94.642,0.008 94.769,0.004 C94.896,0.002 95.021,0.001 95.148,0 C95.216,0 95.283,0 95.349,0 C95.355,0 95.361,0 95.365,0 C95.379,0 95.392,0 95.402,0 C95.429,0 95.453,0 95.478,0 C95.525,0 95.576,0 95.626,0.001 C95.821,0.004 96.019,0.008 96.214,0.01 C96.409,0.017 96.607,0.024 96.804,0.031 C96.997,0.04 97.195,0.052 97.39,0.061 C97.583,0.074 97.777,0.088 97.972,0.1 C98.165,0.117 98.359,0.134 98.55,0.151 C98.743,0.171 98.935,0.19 99.126,0.211 C99.317,0.234 99.511,0.258 99.702,0.28 C99.891,0.307 100.081,0.334 100.272,0.36 C100.461,0.39 100.651,0.421 100.84,0.449 C101.028,0.482 101.215,0.514 101.404,0.548 C101.59,0.585 101.777,0.62 101.965,0.655 C102.153,0.695 102.338,0.734 102.524,0.773 C102.71,0.815 102.893,0.857 103.079,0.899 C103.263,0.945 103.446,0.99 103.63,1.035 C103.812,1.083 103.995,1.132 104.177,1.181 C104.359,1.234 104.538,1.284 104.72,1.334 C104.902,1.39 105.079,1.441 105.259,1.497 C105.439,1.555 105.618,1.611 105.796,1.669 C105.972,1.73 106.151,1.789 106.327,1.85 C106.503,1.913 106.679,1.976 106.854,2.039 C107.03,2.104 107.204,2.17 107.379,2.237 C107.551,2.305 107.725,2.374 107.899,2.441 C108.069,2.513 108.243,2.585 108.413,2.657 C108.583,2.73 108.755,2.805 108.923,2.88 C109.093,2.956 109.261,3.032 109.429,3.111 C109.597,3.189 109.765,3.269 109.931,3.349 C110.099,3.432 110.263,3.515 110.429,3.596 C110.591,3.683 110.757,3.767 110.919,3.852 C111.083,3.94 111.245,4.028 111.407,4.116 C111.567,4.206 111.729,4.298 111.891,4.387 C112.047,4.48 112.207,4.574 112.368,4.666 C112.524,4.761 112.682,4.856 112.841,4.952 C112.995,5.051 113.152,5.147 113.306,5.246 C113.46,5.348 113.617,5.447 113.769,5.548 C113.921,5.651 114.074,5.753 114.226,5.857 C114.376,5.962 114.527,6.067 114.677,6.173 C114.825,6.28 114.974,6.388 115.122,6.496 C115.268,6.606 115.417,6.718 115.563,6.828 C115.708,6.939 115.852,7.052 115.997,7.164 C116.14,7.279 116.282,7.393 116.425,7.509 C116.566,7.626 116.708,7.744 116.849,7.861 C116.988,7.981 117.126,8.101 117.265,8.219 C117.402,8.34 117.54,8.462 117.677,8.584 C117.81,8.707 117.947,8.831 118.081,8.956 C118.214,9.083 118.345,9.207 118.479,9.335 C118.608,9.462 118.741,9.591 118.87,9.718 C118.999,9.849 119.128,9.979 119.257,10.111 C119.382,10.242 119.509,10.375 119.638,10.507 C119.761,10.642 119.884,10.776 120.009,10.909 C120.13,11.047 120.253,11.182 120.374,11.32 C120.495,11.458 120.614,11.596 120.733,11.735 C120.852,11.877 120.969,12.016 121.088,12.157 C121.201,12.299 121.317,12.442 121.432,12.584 C121.545,12.729 121.659,12.873 121.772,13.019 C121.881,13.165 121.993,13.312 122.104,13.457 C122.211,13.605 122.321,13.753 122.428,13.901 C122.533,14.051 122.639,14.201 122.746,14.35 C122.85,14.502 122.953,14.655 123.057,14.807 C123.157,14.96 123.258,15.114 123.36,15.266 C123.458,15.422 123.557,15.579 123.655,15.733 C123.749,15.891 123.846,16.048 123.942,16.206 C124.036,16.364 124.13,16.522 124.221,16.682 C124.313,16.843 124.405,17.003 124.494,17.163 C124.584,17.324 124.67,17.487 124.76,17.649 C124.846,17.812 124.93,17.977 125.018,18.141 C125.1,18.307 125.182,18.471 125.266,18.636 C125.346,18.803 125.426,18.971 125.506,19.136 C125.584,19.305 125.662,19.473 125.738,19.641 C125.812,19.812 125.888,19.983 125.963,20.152 C126.035,20.324 126.106,20.497 126.18,20.667 C126.248,20.841 126.317,21.013 126.387,21.186 C126.453,21.359 126.52,21.535 126.586,21.709 C126.649,21.884 126.713,22.06 126.777,22.235 C126.838,22.413 126.896,22.589 126.959,22.766 C127.018,22.944 127.074,23.122 127.133,23.3 C127.186,23.481 127.242,23.66 127.297,23.84 C127.348,24.021 127.401,24.202 127.453,24.383 C127.5,24.566 127.549,24.746 127.598,24.929 C127.645,25.113 127.69,25.297 127.737,25.479 C127.778,25.665 127.823,25.849 127.866,26.033 C127.905,26.22 127.944,26.405 127.983,26.591 C128.02,26.778 128.057,26.966 128.094,27.152 C128.125,27.341 128.158,27.529 128.194,27.716 C128.225,27.905 128.255,28.094 128.284,28.283 C128.311,28.473 128.339,28.662 128.364,28.852 C128.389,29.043 128.415,29.235 128.438,29.427 C128.458,29.618 128.479,29.81 128.499,30.001 C128.517,30.195 128.534,30.389 128.55,30.581 C128.566,30.775 128.579,30.97 128.593,31.164 C128.603,31.358 128.614,31.553 128.624,31.748 C128.632,31.943 128.64,32.141 128.647,32.335 C128.651,32.531 128.655,32.73 128.659,32.926 C128.659,33.026 128.659,33.123 128.661,33.222 C128.661,33.247 128.661,33.271 128.661,33.295 C128.661,33.301 128.661,33.305 128.661,33.309 C128.661,33.335 128.661,33.359 128.661,33.384 C128.659,33.484 128.655,33.582 128.653,33.68 C128.647,33.779 128.643,33.877 128.639,33.976 C128.633,34.073 128.625,34.171 128.621,34.267 C128.607,34.464 128.594,34.66 128.582,34.854 C128.578,34.903 128.576,34.952 128.574,35 C128.576,35.006 128.578,35.011 128.582,35.016 C128.611,35.027 128.643,35.037 128.67,35.049 C128.791,35.091 128.91,35.133 129.029,35.176 C129.148,35.22 129.265,35.264 129.386,35.308 C129.503,35.354 129.62,35.399 129.738,35.444 C129.857,35.492 129.974,35.538 130.09,35.585 C130.207,35.635 130.322,35.683 130.44,35.731 C130.555,35.78 130.67,35.831 130.786,35.878 C130.903,35.93 131.016,35.981 131.132,36.032 C131.245,36.084 131.359,36.136 131.474,36.189 C131.587,36.243 131.701,36.296 131.814,36.35 C131.925,36.406 132.037,36.46 132.15,36.515 C132.261,36.572 132.373,36.628 132.484,36.685 C132.595,36.743 132.705,36.8 132.816,36.858 C132.925,36.918 133.035,36.976 133.144,37.036 C133.251,37.096 133.363,37.156 133.47,37.217 C133.577,37.279 133.685,37.339 133.794,37.403 C133.899,37.466 134.007,37.529 134.116,37.591 C134.22,37.654 134.327,37.719 134.432,37.782 C134.537,37.847 134.643,37.914 134.746,37.979 C134.851,38.046 134.955,38.112 135.059,38.178 C135.163,38.246 135.264,38.315 135.368,38.382 C135.472,38.451 135.573,38.521 135.677,38.589 C135.777,38.659 135.878,38.73 135.98,38.8 C136.08,38.872 136.179,38.944 136.281,39.015 C136.381,39.087 136.478,39.16 136.578,39.234 C136.676,39.307 136.775,39.382 136.873,39.456 C136.969,39.531 137.066,39.605 137.164,39.681 C137.26,39.756 137.355,39.834 137.453,39.909 C137.547,39.987 137.641,40.064 137.736,40.141 C137.83,40.22 137.925,40.299 138.019,40.376 C138.111,40.456 138.205,40.535 138.296,40.616 C138.388,40.696 138.48,40.777 138.571,40.857 C138.661,40.939 138.753,41.021 138.842,41.103 C138.931,41.185 139.02,41.268 139.11,41.352 C139.2,41.435 139.288,41.519 139.376,41.604 C139.464,41.688 139.552,41.772 139.638,41.857 C139.724,41.944 139.81,42.031 139.898,42.116 C139.982,42.203 140.066,42.291 140.152,42.377 C140.236,42.465 140.318,42.553 140.402,42.643 C140.486,42.732 140.568,42.821 140.652,42.911 C140.732,43 140.814,43.091 140.894,43.181 C140.974,43.273 141.054,43.363 141.134,43.454 C141.212,43.546 141.292,43.638 141.37,43.731 C141.448,43.824 141.524,43.917 141.604,44.01 C141.68,44.104 141.756,44.198 141.833,44.292 C141.91,44.386 141.983,44.482 142.058,44.577 C142.132,44.673 142.206,44.768 142.281,44.864 C142.353,44.961 142.426,45.058 142.498,45.156 C142.57,45.253 142.643,45.351 142.713,45.448 C142.783,45.548 142.854,45.646 142.922,45.745 C142.99,45.845 143.059,45.944 143.129,46.044 C143.195,46.144 143.264,46.245 143.33,46.346 C143.396,46.448 143.463,46.548 143.529,46.65 C143.592,46.753 143.658,46.854 143.722,46.957 C143.785,47.06 143.849,47.163 143.911,47.266 C143.974,47.37 144.034,47.475 144.097,47.579 C144.158,47.683 144.218,47.789 144.279,47.892 C144.338,47.998 144.398,48.105 144.455,48.209 C144.514,48.315 144.57,48.422 144.629,48.529 C144.686,48.635 144.742,48.742 144.797,48.849 C144.852,48.956 144.906,49.066 144.963,49.173 C145.014,49.282 145.07,49.391 145.123,49.498 C145.174,49.608 145.225,49.718 145.277,49.829 C145.326,49.937 145.379,50.049 145.429,50.158 C145.478,50.269 145.527,50.381 145.575,50.492 C145.622,50.603 145.669,50.715 145.718,50.826 C145.763,50.939 145.81,51.051 145.853,51.164 C145.898,51.278 145.943,51.391 145.988,51.504 C146.031,51.618 146.074,51.731 146.117,51.847 C146.158,51.959 146.199,52.075 146.24,52.19 C146.279,52.305 146.322,52.42 146.359,52.535 C146.398,52.651 146.437,52.767 146.474,52.884 C146.509,53.001 146.546,53.118 146.583,53.234 C146.618,53.351 146.653,53.468 146.688,53.586 C146.721,53.703 146.754,53.822 146.788,53.94 C146.819,54.057 146.851,54.175 146.882,54.295 C146.913,54.412 146.943,54.532 146.974,54.651 C147.003,54.771 147.031,54.89 147.058,55.011 C147.087,55.128 147.115,55.251 147.14,55.37 C147.165,55.49 147.191,55.612 147.216,55.731 C147.239,55.854 147.261,55.974 147.286,56.095 C147.307,56.217 147.329,56.339 147.35,56.462 C147.37,56.583 147.391,56.706 147.411,56.828 C147.431,56.951 147.446,57.074 147.466,57.197 C147.484,57.322 147.499,57.443 147.517,57.567 C147.531,57.691 147.546,57.816 147.562,57.939 C147.574,58.064 147.589,58.189 147.601,58.312 C147.613,58.438 147.622,58.564 147.636,58.687 C147.644,58.814 147.654,58.939 147.665,59.064 C147.671,59.19 147.679,59.316 147.688,59.442 C147.694,59.568 147.698,59.695 147.706,59.822 C147.71,59.949 147.714,60.075 147.718,60.202 C147.72,60.33 147.722,60.457 147.726,60.584 C147.726,60.648 147.726,60.712 147.728,60.774 C147.728,60.808 147.728,60.838 147.728,60.87 C147.728,60.88 147.728,60.888 147.728,60.895 C147.728,60.9 147.728,60.906 147.728,60.912 C147.728,60.923 147.728,60.933 147.728,60.943 C147.728,61.114 147.728,61.284 147.728,61.454 C147.726,61.623 147.726,61.791 147.726,61.959 C147.726,62.127 147.726,62.293 147.726,62.459 C147.726,62.624 147.722,62.788 147.722,62.953 C147.722,63.115 147.722,63.279 147.722,63.44 C147.72,63.601 147.72,63.761 147.718,63.922 C147.718,64.081 147.718,64.239 147.716,64.399 C147.714,64.556 147.714,64.712 147.714,64.872 C147.712,65.027 147.71,65.182 147.71,65.337 C147.708,65.49 147.706,65.644 147.706,65.797 C147.704,65.949 147.702,66.101 147.702,66.253 C147.7,66.402 147.698,66.552 147.698,66.701 C147.696,66.849 147.694,66.998 147.694,67.144 C147.69,67.291 147.69,67.436 147.688,67.583 C147.688,67.727 147.686,67.87 147.682,68.015 C147.682,68.158 147.68,68.299 147.678,68.441 C147.678,68.584 147.676,68.724 147.672,68.865 C147.672,69.002 147.67,69.14 147.668,69.281 C147.666,69.418 147.664,69.552 147.664,69.689 C147.66,69.826 147.66,69.96 147.658,70.095 C147.656,70.228 147.656,70.361 147.652,70.493 C147.65,70.624 147.648,70.757 147.648,70.888 C147.644,71.017 147.644,71.146 147.642,71.275 C147.64,71.404 147.638,71.531 147.636,71.658 C147.636,71.785 147.634,71.91 147.632,72.037 C147.63,72.16 147.628,72.285 147.628,72.408 C147.626,72.529 147.624,72.652 147.622,72.773 C147.62,72.894 147.62,73.013 147.618,73.134 C147.616,73.253 147.616,73.37 147.612,73.488 C147.612,73.605 147.61,73.722 147.608,73.838 C147.608,73.955 147.606,74.068 147.604,74.184 C147.604,74.297 147.602,74.409 147.602,74.522 C147.6,74.633 147.6,74.745 147.598,74.856 C147.596,74.965 147.596,75.073 147.596,75.184 C147.594,75.291 147.592,75.399 147.592,75.506 C147.592,75.611 147.592,75.717 147.59,75.822 C147.588,75.924 147.588,76.029 147.588,76.133 C147.586,76.235 147.586,76.336 147.586,76.44 C147.586,76.542 147.586,76.639 147.586,76.741 C147.586,76.837 147.586,76.936 147.584,77.036 C147.584,77.132 147.584,77.227 147.584,77.325 C147.584,77.419 147.584,77.513 147.586,77.61 C147.586,77.7 147.586,77.794 147.586,77.887 C147.586,77.977 147.586,78.069 147.586,78.16 C147.588,78.248 147.588,78.336 147.588,78.426 C147.59,78.514 147.592,78.602 147.592,78.69 C147.592,78.711 147.592,78.733 147.592,78.754 C147.592,78.766 147.592,78.775 147.592,78.785 C147.592,78.795 147.594,78.805 147.594,78.812 C147.594,78.819 147.594,78.824 147.594,78.828 C147.594,78.912 147.596,78.996 147.596,79.08 C147.596,79.16 147.596,79.242 147.596,79.324 C147.594,79.404 147.592,79.484 147.592,79.564 C147.59,79.642 147.588,79.72 147.586,79.8 C147.582,79.876 147.58,79.952 147.578,80.032 C147.574,80.106 147.57,80.18 147.566,80.257 C147.562,80.331 147.558,80.405 147.554,80.48 C147.55,80.552 147.546,80.625 147.54,80.697 C147.534,80.769 147.528,80.842 147.522,80.91 C147.516,80.98 147.51,81.051 147.502,81.119 C147.494,81.187 147.488,81.258 147.481,81.324 C147.471,81.39 147.465,81.457 147.458,81.525 C147.448,81.589 147.44,81.654 147.431,81.72 C147.421,81.784 147.411,81.849 147.402,81.913 C147.39,81.974 147.382,82.036 147.371,82.099 C147.36,82.162 147.35,82.22 147.338,82.285 C147.326,82.344 147.315,82.402 147.303,82.463 C147.289,82.522 147.278,82.58 147.266,82.637 C147.25,82.694 147.239,82.754 147.223,82.809 C147.211,82.866 147.196,82.922 147.182,82.977 C147.166,83.034 147.153,83.086 147.137,83.141 C147.121,83.194 147.106,83.248 147.09,83.301 C147.074,83.352 147.059,83.406 147.041,83.457 C147.023,83.506 147.006,83.559 146.99,83.609 C146.97,83.658 146.953,83.707 146.935,83.757 C146.915,83.806 146.898,83.853 146.878,83.902 C146.86,83.949 146.841,83.996 146.821,84.043 C146.8,84.09 146.782,84.135 146.76,84.18 C146.738,84.225 146.717,84.27 146.697,84.315 C146.676,84.358 146.654,84.403 146.633,84.446 C146.61,84.489 146.588,84.532 146.567,84.575 C146.544,84.614 146.522,84.655 146.497,84.698 C146.474,84.737 146.45,84.776 146.427,84.819 C146.404,84.856 146.38,84.895 146.355,84.934 C146.33,84.973 146.304,85.01 146.281,85.047 C146.254,85.086 146.228,85.121 146.203,85.158 C146.176,85.193 146.15,85.23 146.123,85.265 C146.098,85.3 146.068,85.333 146.043,85.369 C146.014,85.404 145.986,85.437 145.959,85.471 C145.93,85.504 145.9,85.537 145.871,85.571 C145.842,85.602 145.814,85.634 145.785,85.665 C145.754,85.696 145.724,85.728 145.695,85.757 C145.664,85.786 145.632,85.816 145.603,85.847 C145.572,85.876 145.54,85.904 145.509,85.935 C145.478,85.96 145.445,85.99 145.413,86.017 C145.38,86.044 145.349,86.072 145.313,86.099 C145.28,86.124 145.247,86.148 145.213,86.175 C145.18,86.2 145.145,86.224 145.111,86.251 C145.076,86.274 145.043,86.298 145.007,86.323 C144.972,86.346 144.935,86.368 144.9,86.393 C144.865,86.414 144.83,86.438 144.793,86.459 C144.719,86.502 144.647,86.545 144.572,86.586 C144.494,86.627 144.418,86.666 144.342,86.705 C144.264,86.74 144.184,86.777 144.104,86.814 C144.022,86.845 143.94,86.88 143.86,86.914 C143.776,86.943 143.692,86.975 143.606,87.004 C143.52,87.031 143.432,87.061 143.346,87.086 C143.256,87.111 143.166,87.137 143.076,87.162 C142.986,87.183 142.892,87.207 142.803,87.228 C142.709,87.249 142.615,87.269 142.52,87.289 C142.424,87.307 142.327,87.324 142.231,87.342 C142.131,87.358 142.032,87.375 141.932,87.391 C141.83,87.403 141.731,87.416 141.627,87.43 C141.525,87.442 141.42,87.451 141.318,87.465 C141.211,87.475 141.105,87.483 141,87.494 C140.891,87.502 140.783,87.51 140.672,87.519 C140.563,87.525 140.451,87.531 140.342,87.537 C140.229,87.543 140.115,87.549 140.002,87.553 C139.887,87.557 139.772,87.561 139.656,87.563 C139.539,87.567 139.422,87.571 139.304,87.571 C139.183,87.573 139.066,87.575 138.945,87.577 C131.388,87.577 90.004,87.577 68.199,87.577 C66.668,87.577 65.428,86.62 65.429,85.448 C65.429,85.434 65.429,85.423 65.429,85.409 C65.431,84.104 66.077,82.886 67.042,81.948 C69.53,79.526 71.077,76.143 71.077,72.4 C71.077,65.051 65.108,59.083 57.759,59.083 C50.411,59.083 44.443,65.052 44.443,72.4 C44.443,76.143 45.99,79.526 48.478,81.948 C49.444,82.885 50.091,84.103 50.095,85.408 Z" id="Path" fill="url(#linearGradient-1)" fill-rule="nonzero"></path>
        <path d="M172.373,55.385 C174.561,55.385 176.612,56.016 178.533,57.275 C180.445,58.54 181.995,60.246 183.174,62.393 C184.356,64.539 184.941,66.943 184.941,69.595 C184.941,72.204 184.356,74.584 183.174,76.737 C181.995,78.88 180.445,80.598 178.533,81.882 C176.612,83.171 174.56,83.808 172.373,83.808 L160.75,83.808 L161.383,82.673 L161.383,112.105 C161.383,113.201 161.046,114.113 160.369,114.853 C159.697,115.589 158.81,115.958 157.713,115.958 C156.664,115.958 155.804,115.589 155.126,114.853 C154.456,114.113 154.118,113.201 154.118,112.105 L154.118,59.239 C154.118,58.139 154.484,57.227 155.225,56.487 C155.956,55.751 156.875,55.386 157.97,55.386 L172.373,55.386 L172.373,55.385 Z M172.373,76.605 C173.17,76.605 173.953,76.271 174.706,75.595 C175.469,74.923 176.096,74.05 176.61,72.973 C177.108,71.897 177.363,70.778 177.363,69.594 C177.363,68.366 177.108,67.236 176.61,66.18 C176.095,65.13 175.468,64.28 174.706,63.627 C173.953,62.977 173.17,62.642 172.373,62.642 L160.625,62.642 L161.383,61.505 L161.383,77.62 L160.685,76.604 L172.373,76.604 L172.373,76.605 Z" id="Shape" fill="#2FE0EA" fill-rule="nonzero"></path>
        <path d="M216.334,54.746 C217.431,54.746 218.341,55.122 219.054,55.856 C219.769,56.597 220.13,57.511 220.13,58.598 L220.13,74.65 C220.13,79.111 218.883,82.646 216.4,85.261 C213.914,87.87 210.338,89.177 205.664,89.177 C200.988,89.177 197.416,87.87 194.953,85.261 C192.491,82.646 191.262,79.111 191.262,74.65 L191.262,58.598 C191.262,57.511 191.616,56.597 192.337,55.856 C193.045,55.122 193.952,54.746 195.055,54.746 C196.146,54.746 197.052,55.122 197.765,55.856 C198.483,56.597 198.843,57.511 198.843,58.598 L198.843,74.65 C198.843,77.216 199.409,79.125 200.545,80.369 C201.683,81.611 203.388,82.226 205.664,82.226 C207.982,82.226 209.709,81.611 210.846,80.369 C211.984,79.125 212.548,77.217 212.548,74.65 L212.548,58.598 C212.548,57.511 212.906,56.597 213.62,55.856 C214.341,55.122 215.241,54.746 216.334,54.746 Z" id="Path" fill="#2FE0EA" fill-rule="nonzero"></path>
        <path d="M249.881,81.599 C250.891,81.599 251.734,81.927 252.408,82.572 C253.079,83.232 253.417,84.062 253.417,85.072 C253.417,86.041 253.079,86.863 252.408,87.529 C251.733,88.207 250.89,88.547 249.881,88.547 L229.538,88.547 C228.486,88.547 227.643,88.168 227.013,87.41 C226.38,86.65 226.091,85.889 226.131,85.137 C226.172,84.504 226.253,83.951 226.38,83.465 C226.506,82.975 226.821,82.418 227.33,81.787 L243.058,61.449 L242.933,62.331 L230.11,62.331 C229.098,62.331 228.256,61.993 227.582,61.322 C226.904,60.649 226.571,59.804 226.571,58.796 C226.571,57.829 226.904,57.018 227.582,56.362 C228.256,55.709 229.099,55.384 230.11,55.384 L249.564,55.384 C250.531,55.384 251.349,55.743 252.025,56.455 C252.699,57.172 252.997,58.073 252.913,59.173 C252.869,59.594 252.799,60.015 252.692,60.434 C252.588,60.856 252.3,61.365 251.838,61.954 L236.362,81.982 L236.362,81.599 L249.881,81.599 L249.881,81.599 Z" id="Path" fill="#2FE0EA" fill-rule="nonzero"></path>
        <path d="M280.454,81.599 C281.465,81.599 282.304,81.927 282.978,82.572 C283.645,83.232 283.986,84.062 283.986,85.072 C283.986,86.041 283.645,86.863 282.978,87.529 C282.303,88.207 281.464,88.547 280.454,88.547 L260.115,88.547 C259.059,88.547 258.218,88.168 257.586,87.41 C256.953,86.65 256.66,85.889 256.7,85.137 C256.742,84.504 256.825,83.951 256.953,83.465 C257.083,82.975 257.396,82.418 257.896,81.787 L273.629,61.449 L273.503,62.331 L260.679,62.331 C259.672,62.331 258.818,61.993 258.156,61.322 C257.476,60.649 257.147,59.804 257.147,58.796 C257.147,57.829 257.476,57.018 258.156,56.362 C258.818,55.709 259.673,55.384 260.679,55.384 L280.136,55.384 C281.106,55.384 281.925,55.743 282.597,56.455 C283.269,57.172 283.57,58.073 283.486,59.173 C283.443,59.594 283.369,60.015 283.259,60.434 C283.154,60.856 282.876,61.365 282.408,61.954 L266.932,81.982 L266.932,81.599 L280.454,81.599 L280.454,81.599 Z" id="Path" fill="#2FE0EA" fill-rule="nonzero"></path>
        <path d="M297.698,112.103 C297.698,113.199 297.331,114.111 296.591,114.851 C295.858,115.587 294.942,115.956 293.845,115.956 C292.787,115.956 291.907,115.587 291.195,114.851 C290.472,114.111 290.113,113.199 290.113,112.103 L290.113,57.969 C290.113,56.879 290.489,55.962 291.22,55.225 C291.958,54.488 292.87,54.118 293.971,54.118 C295.063,54.118 295.959,54.488 296.654,55.225 C297.355,55.962 297.699,56.879 297.699,57.969 L297.699,112.103 L297.698,112.103 Z" id="Path" fill="#2FE0EA" fill-rule="nonzero"></path>
        <path d="M321.507,89.178 C317.931,89.178 314.829,88.43 312.191,86.936 C309.56,85.44 307.54,83.411 306.133,80.844 C304.719,78.276 304.016,75.369 304.016,72.122 C304.016,68.332 304.782,65.099 306.32,62.427 C307.854,59.752 309.864,57.7 312.349,56.271 C314.838,54.836 317.471,54.119 320.252,54.119 C322.399,54.119 324.427,54.559 326.343,55.448 C328.261,56.333 329.947,57.541 331.431,59.078 C332.9,60.613 334.073,62.398 334.942,64.416 C335.799,66.439 336.23,68.586 336.23,70.859 C336.188,71.871 335.787,72.697 335.027,73.324 C334.279,73.96 333.384,74.276 332.375,74.276 L308.251,74.276 L306.355,67.953 L329.531,67.953 L328.145,69.219 L328.145,67.51 C328.061,66.293 327.629,65.198 326.852,64.23 C326.07,63.257 325.1,62.491 323.944,61.922 C322.788,61.356 321.55,61.068 320.254,61.068 C318.983,61.068 317.807,61.237 316.716,61.577 C315.617,61.913 314.665,62.481 313.871,63.28 C313.071,64.08 312.433,65.155 311.979,66.503 C311.512,67.853 311.279,69.558 311.279,71.616 C311.279,73.896 311.75,75.82 312.703,77.398 C313.647,78.974 314.871,80.177 316.367,80.998 C317.863,81.82 319.452,82.228 321.132,82.228 C322.692,82.228 323.929,82.103 324.864,81.859 C325.787,81.601 326.535,81.293 327.099,80.937 C327.672,80.58 328.188,80.275 328.649,80.025 C329.405,79.644 330.126,79.449 330.8,79.449 C331.726,79.449 332.493,79.765 333.104,80.402 C333.715,81.029 334.019,81.771 334.019,82.613 C334.019,83.75 333.424,84.785 332.251,85.709 C331.158,86.631 329.62,87.441 327.64,88.139 C325.66,88.832 323.618,89.178 321.507,89.178 Z" id="Path" fill="#2FE0EA" fill-rule="nonzero"></path>
        <path d="M340.588,83.304 C340.169,82.72 339.975,81.952 340.018,81.027 C340.062,80.103 340.611,79.304 341.665,78.627 C342.33,78.215 343.052,78.031 343.807,78.092 C344.57,78.155 345.305,78.547 346.017,79.264 C347.235,80.485 348.527,81.432 349.871,82.102 C351.215,82.778 352.9,83.112 354.923,83.112 C355.558,83.077 356.251,82.975 357.013,82.833 C357.766,82.688 358.43,82.351 359.001,81.819 C359.565,81.292 359.855,80.485 359.855,79.387 C359.855,78.463 359.541,77.723 358.905,77.174 C358.273,76.631 357.445,76.164 356.409,75.785 C355.378,75.404 354.23,75.049 352.971,74.715 C351.662,74.336 350.323,73.916 348.958,73.449 C347.588,72.983 346.332,72.391 345.198,71.647 C344.063,70.917 343.136,69.936 342.414,68.711 C341.702,67.488 341.344,65.955 341.344,64.099 C341.344,61.993 341.931,60.207 343.114,58.731 C344.296,57.257 345.817,56.126 347.699,55.319 C349.569,54.522 351.538,54.118 353.598,54.118 C354.902,54.118 356.272,54.279 357.702,54.591 C359.134,54.906 360.505,55.413 361.808,56.112 C363.115,56.804 364.208,57.72 365.097,58.859 C365.56,59.493 365.829,60.246 365.916,61.133 C366.003,62.015 365.598,62.813 364.717,63.529 C364.083,64.038 363.344,64.26 362.506,64.192 C361.665,64.135 360.97,63.845 360.418,63.346 C359.708,62.414 358.742,61.678 357.548,61.133 C356.346,60.584 354.965,60.312 353.409,60.312 C352.774,60.312 352.091,60.381 351.357,60.531 C350.618,60.683 349.976,60.996 349.429,61.482 C348.879,61.963 348.61,62.733 348.61,63.791 C348.61,64.755 348.919,65.518 349.557,66.091 C350.185,66.656 351.042,67.121 352.112,67.486 C353.187,67.842 354.334,68.188 355.556,68.526 C356.818,68.864 358.104,69.262 359.41,69.723 C360.714,70.184 361.916,70.795 363.008,71.553 C364.104,72.313 364.993,73.289 365.661,74.493 C366.338,75.692 366.676,77.218 366.676,79.071 C366.676,81.219 366.042,83.048 364.78,84.567 C363.52,86.085 361.939,87.231 360.044,88.01 C358.149,88.789 356.21,89.178 354.23,89.178 C351.746,89.178 349.263,88.746 346.78,87.881 C344.295,87.015 342.225,85.494 340.588,83.304 Z" id="Path" fill="#2FE0EA" fill-rule="nonzero"></path>
        <path d="M185.811,108.703 L189.506,109.875 C188.392,113.932 185.777,115.961 181.664,115.961 C178.969,115.961 176.841,115.022 175.279,113.147 C173.812,111.395 173.079,109.137 173.079,106.376 C173.079,103.464 173.808,101.116 175.265,99.335 C176.836,97.421 179.05,96.464 181.908,96.464 C184.202,96.464 186.073,97.146 187.521,98.507 C188.377,99.316 189.02,100.474 189.449,101.978 L185.682,102.878 C185.463,101.892 184.999,101.118 184.291,100.554 C183.582,99.99 182.724,99.706 181.716,99.706 C178.586,99.706 177.022,101.835 177.022,106.091 C177.022,110.509 178.563,112.718 181.645,112.718 C183.813,112.717 185.202,111.381 185.811,108.703 Z" id="Path" fill="#2FE0EA" fill-rule="nonzero"></path>
        <polygon id="Path" fill="#2FE0EA" fill-rule="nonzero" points="196.373 115.631 196.373 96.934 200.201 96.934 200.201 112.448 209.642 112.448 209.642 115.632 196.373 115.632"></polygon>
        <path d="M215.096,106.318 C215.096,103.175 215.967,100.705 217.71,98.906 C219.29,97.277 221.457,96.463 224.209,96.463 C227.122,96.463 229.394,97.373 231.022,99.192 C232.593,100.944 233.379,103.292 233.379,106.233 C233.379,109.167 232.598,111.499 231.036,113.233 C229.408,115.051 227.151,115.962 224.265,115.962 C221.37,115.962 219.104,115.071 217.466,113.29 C215.886,111.566 215.096,109.242 215.096,106.318 Z M219.038,106.189 C219.038,108.041 219.436,109.548 220.234,110.712 C221.155,112.048 222.495,112.716 224.252,112.716 C226.018,112.716 227.356,112.04 228.269,110.685 C229.038,109.529 229.422,108.017 229.422,106.146 C229.422,104.257 229.037,102.753 228.269,101.638 C227.385,100.349 226.046,99.704 224.252,99.704 C222.457,99.704 221.108,100.358 220.206,101.665 C219.428,102.793 219.038,104.301 219.038,106.189 Z" id="Shape" fill="#2FE0EA" fill-rule="nonzero"></path>
        <path d="M239.832,96.791 L243.66,96.791 L243.66,107 C243.66,108.648 243.707,109.701 243.802,110.158 C244.144,111.865 245.363,112.717 247.459,112.717 C249.48,112.717 250.617,111.955 250.874,110.43 C250.987,109.782 251.044,108.715 251.044,107.229 L251.044,96.791 L254.858,96.791 L254.858,106.689 C254.858,108.5 254.815,109.742 254.729,110.418 C254.539,111.904 254.1,113.047 253.415,113.846 C252.206,115.256 250.259,115.961 247.573,115.961 C244.593,115.961 242.493,115.207 241.274,113.703 C240.731,113.037 240.374,112.342 240.203,111.617 C239.955,110.551 239.832,108.957 239.832,106.832 L239.832,96.791 Z" id="Path" fill="#2FE0EA" fill-rule="nonzero"></path>
        <path d="M262.367,96.791 L269.323,96.791 C270.894,96.791 272.09,96.91 272.909,97.148 C275.137,97.796 276.684,99.39 277.551,101.933 C277.96,103.142 278.165,104.628 278.165,106.39 C278.165,109.599 277.299,112.046 275.565,113.732 C274.908,114.378 274.017,114.878 272.894,115.232 C272.066,115.498 270.942,115.63 269.523,115.63 L262.367,115.63 L262.367,96.791 Z M266.195,99.99 L266.195,112.447 L269.013,112.447 C270.076,112.447 270.844,112.384 271.319,112.261 C272.571,111.947 273.411,111.083 273.839,109.667 C274.095,108.821 274.223,107.671 274.223,106.218 C274.223,103.691 273.735,101.972 272.757,101.06 C272.301,100.622 271.718,100.324 271.006,100.162 C270.465,100.049 269.426,99.99 267.89,99.99 L266.195,99.99 Z" id="Shape" fill="#2FE0EA" fill-rule="nonzero"></path>
    </g>
</svg>